<svg width="81" height="12" viewBox="0 0 81 12" fill="none" xmlns="http://www.w3.org/2000/svg">
    <path d="M3.11325 6L6 8.88675L8.88675 6L6 3.11325L3.11325 6ZM81 5.5H78.9167V6.5H81V5.5ZM74.75 5.5H70.5833V6.5H74.75V5.5ZM66.4167 5.5L62.25 5.5V6.5L66.4167 6.5V5.5ZM58.0833 5.5H53.9167V6.5H58.0833V5.5ZM49.75 5.5H45.5833V6.5H49.75V5.5ZM41.4167 5.5H37.25V6.5H41.4167V5.5ZM33.0833 5.5H28.9167V6.5H33.0833V5.5ZM24.75 5.5H20.5833V6.5H24.75V5.5ZM16.4167 5.5H12.25V6.5H16.4167V5.5ZM8.08335 5.5H6V6.5H8.08335V5.5ZM0.226492 6L6 11.7735L11.7735 6L6 0.226496L0.226492 6ZM81 5H78.9167V7H81V5ZM74.75 5H70.5833V7H74.75V5ZM66.4167 5H62.25V7H66.4167V5ZM58.0833 5H53.9167V7H58.0833V5ZM49.75 5H45.5833V7H49.75V5ZM41.4167 5H37.25V7H41.4167V5ZM33.0833 5H28.9167V7H33.0833V5ZM24.75 5H20.5833V7H24.75V5ZM16.4167 5H12.25V7H16.4167V5ZM8.08335 5H6V7H8.08335V5Z" fill="#A38D7F"/>
</svg>
