<svg width="80" height="156" viewBox="0 0 80 156" fill="none" xmlns="http://www.w3.org/2000/svg">
    <path opacity="0.8" d="M78 154L24.719 131.767L2 77.525L23.2319 25.3209L78 2" stroke="#C7AB9B" stroke-width="3" stroke-miterlimit="10" stroke-dasharray="6 6"/>
    <path d="M76.3868 78L73.5 75.1132L70.6132 78L73.5 80.8868L76.3868 78ZM40 78.5L42.0937 78.5L42.0938 77.5L40 77.5L40 78.5ZM46.2812 78.5L50.4687 78.5L50.4688 77.5L46.2813 77.5L46.2812 78.5ZM54.6562 78.5L58.8437 78.5L58.8438 77.5L54.6563 77.5L54.6562 78.5ZM63.0312 78.5L67.2187 78.5L67.2188 77.5L63.0313 77.5L63.0312 78.5ZM71.4062 78.5L73.5 78.5L73.5 77.5L71.4063 77.5L71.4062 78.5ZM79.2735 78L73.5 72.2265L67.7265 78L73.5 83.7735L79.2735 78ZM40 79L42.0937 79L42.0938 77L40 77L40 79ZM46.2812 79L50.4687 79L50.4688 77L46.2813 77L46.2812 79ZM54.6562 79L58.8437 79L58.8438 77L54.6563 77L54.6562 79ZM63.0312 79L67.2187 79L67.2188 77L63.0313 77L63.0312 79ZM71.4062 79L73.5 79L73.5 77L71.4063 77L71.4062 79Z" fill="#A38D7F"/>
</svg>
