<svg width="80" height="156" viewBox="0 0 80 156" fill="none" xmlns="http://www.w3.org/2000/svg">
    <path opacity="0.8" d="M2 2.00001L55.281 24.2329L78 78.475L56.7681 130.679L2 154" stroke="#C7AB9B" stroke-width="3" stroke-miterlimit="10" stroke-dasharray="6 6"/>
    <path d="M3.61325 78L6.5 80.8868L9.38675 78L6.5 75.1132L3.61325 78ZM40 77.5L37.9063 77.5L37.9062 78.5L40 78.5L40 77.5ZM33.7188 77.5L29.5313 77.5L29.5312 78.5L33.7187 78.5L33.7188 77.5ZM25.3438 77.5L21.1563 77.5L21.1562 78.5L25.3437 78.5L25.3438 77.5ZM16.9688 77.5L12.7813 77.5L12.7812 78.5L16.9687 78.5L16.9688 77.5ZM8.59375 77.5L6.5 77.5L6.5 78.5L8.59375 78.5L8.59375 77.5ZM0.726498 78L6.5 83.7735L12.2735 78L6.5 72.2265L0.726498 78ZM40 77L37.9063 77L37.9062 79L40 79L40 77ZM33.7188 77L29.5313 77L29.5312 79L33.7187 79L33.7188 77ZM25.3438 77L21.1563 77L21.1562 79L25.3437 79L25.3438 77ZM16.9688 77L12.7813 77L12.7812 79L16.9687 79L16.9688 77ZM8.59375 77L6.5 77L6.5 79L8.59375 79L8.59375 77Z" fill="#A38D7F"/>
</svg>
