<svg id="Слой_1" data-name="Слой 1" xmlns="http://www.w3.org/2000/svg" viewBox="0 0 2449.05 2449.05"><defs><style>.cls-1{fill:none;stroke:#c2a771;stroke-miterlimit:10;stroke-width:3.15px;}</style></defs><line class="cls-1" x1="1222.3" x2="1222.3" y2="43.84"/><line class="cls-1" x1="1286.38" y1="1.56" x2="1284.09" y2="45.35"/><line class="cls-1" x1="1350.3" y1="6.48" x2="1345.72" y2="50.08"/><line class="cls-1" x1="1413.88" y1="14.73" x2="1407.02" y2="58.03"/><line class="cls-1" x1="1476.94" y1="26.3" x2="1467.82" y2="69.18"/><line class="cls-1" x1="1539.3" y1="41.15" x2="1527.95" y2="83.5"/><line class="cls-1" x1="1600.8" y1="59.24" x2="1587.25" y2="100.94"/><line class="cls-1" x1="1661.27" y1="80.53" x2="1645.56" y2="121.47"/><line class="cls-1" x1="1720.55" y1="104.96" x2="1702.71" y2="145.01"/><line class="cls-1" x1="1778.46" y1="132.45" x2="1758.56" y2="171.52"/><line class="cls-1" x1="1834.86" y1="162.94" x2="1812.93" y2="200.91"/><line class="cls-1" x1="1889.58" y1="196.34" x2="1865.7" y2="233.11"/><line class="cls-1" x1="1942.48" y1="232.55" x2="1916.71" y2="268.02"/><line class="cls-1" x1="1993.41" y1="271.49" x2="1965.82" y2="305.56"/><line class="cls-1" x1="2042.23" y1="313.03" x2="2012.9" y2="345.62"/><line class="cls-1" x1="2088.82" y1="357.08" x2="2057.81" y2="388.08"/><line class="cls-1" x1="2133.03" y1="403.5" x2="2100.45" y2="432.84"/><line class="cls-1" x1="2174.76" y1="452.17" x2="2140.68" y2="479.77"/><line class="cls-1" x1="2213.87" y1="502.96" x2="2178.4" y2="528.73"/><line class="cls-1" x1="2250.28" y1="555.73" x2="2213.51" y2="579.61"/><line class="cls-1" x1="2283.88" y1="610.33" x2="2245.91" y2="632.25"/><line class="cls-1" x1="2314.57" y1="666.62" x2="2275.51" y2="686.52"/><line class="cls-1" x1="2342.28" y1="724.43" x2="2302.22" y2="742.26"/><line class="cls-1" x1="2366.92" y1="783.61" x2="2325.98" y2="799.33"/><line class="cls-1" x1="2388.43" y1="844.01" x2="2346.73" y2="857.55"/><line class="cls-1" x1="2406.75" y1="905.44" x2="2364.4" y2="916.79"/><line class="cls-1" x1="2421.83" y1="967.75" x2="2378.94" y2="976.87"/><line class="cls-1" x1="2433.62" y1="1030.76" x2="2390.32" y2="1037.62"/><line class="cls-1" x1="2442.11" y1="1094.31" x2="2398.5" y2="1098.89"/><line class="cls-1" x1="2447.25" y1="1158.21" x2="2403.47" y2="1160.51"/><line class="cls-1" x1="2449.05" y1="1222.3" x2="2405.2" y2="1222.3"/><line class="cls-1" x1="2447.49" y1="1286.38" x2="2403.7" y2="1284.09"/><line class="cls-1" x1="2442.57" y1="1350.3" x2="2398.97" y2="1345.72"/><line class="cls-1" x1="2434.32" y1="1413.88" x2="2391.02" y2="1407.02"/><line class="cls-1" x1="2422.75" y1="1476.94" x2="2379.87" y2="1467.82"/><line class="cls-1" x1="2407.9" y1="1539.3" x2="2365.55" y2="1527.95"/><line class="cls-1" x1="2389.8" y1="1600.8" x2="2348.11" y2="1587.25"/><line class="cls-1" x1="2368.52" y1="1661.27" x2="2327.58" y2="1645.56"/><line class="cls-1" x1="2344.09" y1="1720.55" x2="2304.04" y2="1702.71"/><line class="cls-1" x1="2316.6" y1="1778.46" x2="2277.53" y2="1758.56"/><line class="cls-1" x1="2286.11" y1="1834.86" x2="2248.14" y2="1812.93"/><line class="cls-1" x1="2252.71" y1="1889.58" x2="2215.94" y2="1865.7"/><line class="cls-1" x1="2216.5" y1="1942.48" x2="2181.02" y2="1916.71"/><line class="cls-1" x1="2177.56" y1="1993.41" x2="2143.49" y2="1965.82"/><line class="cls-1" x1="2136.01" y1="2042.23" x2="2103.43" y2="2012.9"/><line class="cls-1" x1="2091.97" y1="2088.82" x2="2060.97" y2="2057.81"/><line class="cls-1" x1="2045.55" y1="2133.03" x2="2016.21" y2="2100.45"/><line class="cls-1" x1="1996.87" y1="2174.76" x2="1969.28" y2="2140.68"/><line class="cls-1" x1="1946.09" y1="2213.87" x2="1920.31" y2="2178.4"/><line class="cls-1" x1="1893.32" y1="2250.28" x2="1869.44" y2="2213.51"/><line class="cls-1" x1="1838.72" y1="2283.88" x2="1816.79" y2="2245.91"/><line class="cls-1" x1="1782.43" y1="2314.57" x2="1762.53" y2="2275.51"/><line class="cls-1" x1="1724.62" y1="2342.28" x2="1706.79" y2="2302.22"/><line class="cls-1" x1="1665.44" y1="2366.92" x2="1649.72" y2="2325.98"/><line class="cls-1" x1="1605.04" y1="2388.43" x2="1591.49" y2="2346.73"/><line class="cls-1" x1="1543.61" y1="2406.75" x2="1532.26" y2="2364.4"/><line class="cls-1" x1="1481.3" y1="2421.83" x2="1472.18" y2="2378.94"/><line class="cls-1" x1="1418.28" y1="2433.62" x2="1411.43" y2="2390.32"/><line class="cls-1" x1="1354.74" y1="2442.11" x2="1350.16" y2="2398.5"/><line class="cls-1" x1="1290.84" y1="2447.25" x2="1288.54" y2="2403.47"/><line class="cls-1" x1="1226.75" y1="2449.05" x2="1226.75" y2="2405.2"/><line class="cls-1" x1="1162.66" y1="2447.49" x2="1164.96" y2="2403.7"/><line class="cls-1" x1="1098.74" y1="2442.57" x2="1103.33" y2="2398.97"/><line class="cls-1" x1="1035.17" y1="2434.32" x2="1042.03" y2="2391.02"/><line class="cls-1" x1="972.11" y1="2422.75" x2="981.23" y2="2379.87"/><line class="cls-1" x1="909.75" y1="2407.9" x2="921.1" y2="2365.55"/><line class="cls-1" x1="848.25" y1="2389.8" x2="861.79" y2="2348.11"/><line class="cls-1" x1="787.78" y1="2368.52" x2="803.49" y2="2327.58"/><line class="cls-1" x1="728.5" y1="2344.09" x2="746.34" y2="2304.04"/><line class="cls-1" x1="670.59" y1="2316.6" x2="690.49" y2="2277.53"/><line class="cls-1" x1="614.19" y1="2286.11" x2="636.12" y2="2248.14"/><line class="cls-1" x1="559.47" y1="2252.71" x2="583.35" y2="2215.94"/><line class="cls-1" x1="506.57" y1="2216.5" x2="532.34" y2="2181.02"/><line class="cls-1" x1="455.64" y1="2177.56" x2="483.23" y2="2143.49"/><line class="cls-1" x1="406.81" y1="2136.01" x2="436.15" y2="2103.43"/><line class="cls-1" x1="360.23" y1="2091.97" x2="391.23" y2="2060.97"/><line class="cls-1" x1="316.02" y1="2045.55" x2="348.6" y2="2016.21"/><line class="cls-1" x1="274.29" y1="1996.87" x2="308.37" y2="1969.28"/><line class="cls-1" x1="235.17" y1="1946.09" x2="270.64" y2="1920.31"/><line class="cls-1" x1="198.77" y1="1893.32" x2="235.54" y2="1869.44"/><line class="cls-1" x1="165.17" y1="1838.72" x2="203.14" y2="1816.79"/><line class="cls-1" x1="134.48" y1="1782.43" x2="173.54" y2="1762.53"/><line class="cls-1" x1="106.77" y1="1724.62" x2="146.83" y2="1706.79"/><line class="cls-1" x1="82.13" y1="1665.44" x2="123.06" y2="1649.72"/><line class="cls-1" x1="60.62" y1="1605.04" x2="102.32" y2="1591.49"/><line class="cls-1" x1="42.3" y1="1543.61" x2="84.65" y2="1532.26"/><line class="cls-1" x1="27.22" y1="1481.3" x2="70.11" y2="1472.18"/><line class="cls-1" x1="15.42" y1="1418.28" x2="58.73" y2="1411.43"/><line class="cls-1" x1="6.94" y1="1354.74" x2="50.55" y2="1350.16"/><line class="cls-1" x1="1.79" y1="1290.84" x2="45.58" y2="1288.54"/><line class="cls-1" y1="1226.75" x2="43.84" y2="1226.75"/><line class="cls-1" x1="1.56" y1="1162.66" x2="45.35" y2="1164.96"/><line class="cls-1" x1="6.48" y1="1098.74" x2="50.08" y2="1103.33"/><line class="cls-1" x1="14.73" y1="1035.17" x2="58.03" y2="1042.03"/><line class="cls-1" x1="26.3" y1="972.11" x2="69.18" y2="981.23"/><line class="cls-1" x1="41.15" y1="909.75" x2="83.5" y2="921.1"/><line class="cls-1" x1="59.24" y1="848.25" x2="100.94" y2="861.79"/><line class="cls-1" x1="80.53" y1="787.78" x2="121.47" y2="803.49"/><line class="cls-1" x1="104.96" y1="728.5" x2="145.01" y2="746.34"/><line class="cls-1" x1="132.45" y1="670.59" x2="171.52" y2="690.49"/><line class="cls-1" x1="162.94" y1="614.19" x2="200.91" y2="636.12"/><line class="cls-1" x1="196.34" y1="559.47" x2="233.11" y2="583.35"/><line class="cls-1" x1="232.55" y1="506.57" x2="268.02" y2="532.34"/><line class="cls-1" x1="271.49" y1="455.64" x2="305.56" y2="483.23"/><line class="cls-1" x1="313.03" y1="406.81" x2="345.62" y2="436.15"/><line class="cls-1" x1="357.08" y1="360.23" x2="388.08" y2="391.23"/><line class="cls-1" x1="403.5" y1="316.02" x2="432.84" y2="348.6"/><line class="cls-1" x1="452.17" y1="274.29" x2="479.77" y2="308.37"/><line class="cls-1" x1="502.96" y1="235.17" x2="528.73" y2="270.64"/><line class="cls-1" x1="555.73" y1="198.77" x2="579.61" y2="235.54"/><line class="cls-1" x1="610.33" y1="165.17" x2="632.25" y2="203.14"/><line class="cls-1" x1="666.62" y1="134.48" x2="686.52" y2="173.54"/><line class="cls-1" x1="724.43" y1="106.77" x2="742.26" y2="146.83"/><line class="cls-1" x1="783.61" y1="82.13" x2="799.33" y2="123.06"/><line class="cls-1" x1="844.01" y1="60.62" x2="857.55" y2="102.32"/><line class="cls-1" x1="905.44" y1="42.3" x2="916.79" y2="84.65"/><line class="cls-1" x1="967.75" y1="27.22" x2="976.87" y2="70.11"/><line class="cls-1" x1="1030.76" y1="15.42" x2="1037.62" y2="58.73"/><line class="cls-1" x1="1094.31" y1="6.94" x2="1098.89" y2="50.55"/><line class="cls-1" x1="1158.21" y1="1.79" x2="1160.51" y2="45.58"/><line class="cls-1" x1="1222.3" x2="1222.3" y2="43.84"/></svg>