<svg id="Слой_1" data-name="Слой 1" xmlns="http://www.w3.org/2000/svg" viewBox="0 0 1845.27 1848.77"><defs><style>.cls-1{fill:none;stroke:#c2a771;stroke-miterlimit:10;stroke-width:2.26px;}</style></defs><line class="cls-1" x1="922.63" x2="922.63" y2="148.02"/><line class="cls-1" x1="1038.49" y1="7.29" x2="1019.94" y2="154.15"/><line class="cls-1" x1="1152.52" y1="29.04" x2="1115.71" y2="172.42"/><line class="cls-1" x1="1262.92" y1="64.91" x2="1208.43" y2="202.54"/><line class="cls-1" x1="1367.96" y1="114.34" x2="1296.65" y2="244.06"/><line class="cls-1" x1="1465.98" y1="176.54" x2="1378.97" y2="296.3"/><line class="cls-1" x1="1555.42" y1="250.54" x2="1454.09" y2="358.44"/><line class="cls-1" x1="1634.89" y1="335.16" x2="1520.83" y2="429.51"/><line class="cls-1" x1="1703.12" y1="429.08" x2="1578.14" y2="508.39"/><line class="cls-1" x1="1759.04" y1="530.8" x2="1625.11" y2="593.83"/><line class="cls-1" x1="1801.78" y1="638.74" x2="1661" y2="684.48"/><line class="cls-1" x1="1830.65" y1="751.17" x2="1685.25" y2="778.91"/><line class="cls-1" x1="1845.2" y1="866.34" x2="1697.46" y2="875.64"/><line class="cls-1" x1="1845.2" y1="982.43" x2="1697.46" y2="973.14"/><line class="cls-1" x1="1830.65" y1="1097.6" x2="1685.25" y2="1069.86"/><line class="cls-1" x1="1801.78" y1="1210.04" x2="1661" y2="1164.3"/><line class="cls-1" x1="1759.04" y1="1317.97" x2="1625.11" y2="1254.95"/><line class="cls-1" x1="1703.12" y1="1419.7" x2="1578.14" y2="1340.38"/><line class="cls-1" x1="1634.89" y1="1513.61" x2="1520.83" y2="1419.26"/><line class="cls-1" x1="1555.42" y1="1598.24" x2="1454.09" y2="1490.33"/><line class="cls-1" x1="1465.98" y1="1672.23" x2="1378.97" y2="1552.48"/><line class="cls-1" x1="1367.96" y1="1734.43" x2="1296.65" y2="1604.72"/><line class="cls-1" x1="1262.92" y1="1783.86" x2="1208.43" y2="1646.23"/><line class="cls-1" x1="1152.52" y1="1819.73" x2="1115.71" y2="1676.36"/><line class="cls-1" x1="1038.49" y1="1841.49" x2="1019.94" y2="1694.63"/><line class="cls-1" x1="922.63" y1="1848.77" x2="922.63" y2="1700.75"/><line class="cls-1" x1="806.78" y1="1841.49" x2="825.33" y2="1694.63"/><line class="cls-1" x1="692.75" y1="1819.73" x2="729.56" y2="1676.36"/><line class="cls-1" x1="582.34" y1="1783.86" x2="636.84" y2="1646.23"/><line class="cls-1" x1="477.31" y1="1734.43" x2="548.62" y2="1604.72"/><line class="cls-1" x1="379.29" y1="1672.23" x2="466.3" y2="1552.48"/><line class="cls-1" x1="289.85" y1="1598.24" x2="391.18" y2="1490.33"/><line class="cls-1" x1="210.38" y1="1513.61" x2="324.44" y2="1419.26"/><line class="cls-1" x1="142.15" y1="1419.7" x2="267.13" y2="1340.38"/><line class="cls-1" x1="86.22" y1="1317.97" x2="220.16" y2="1254.95"/><line class="cls-1" x1="43.49" y1="1210.04" x2="184.27" y2="1164.3"/><line class="cls-1" x1="14.62" y1="1097.6" x2="160.02" y2="1069.86"/><line class="cls-1" x1="0.07" y1="982.43" x2="147.8" y2="973.14"/><line class="cls-1" x1="0.07" y1="866.34" x2="147.8" y2="875.64"/><line class="cls-1" x1="14.62" y1="751.17" x2="160.02" y2="778.91"/><line class="cls-1" x1="43.49" y1="638.74" x2="184.27" y2="684.48"/><line class="cls-1" x1="86.22" y1="530.8" x2="220.16" y2="593.83"/><line class="cls-1" x1="142.15" y1="429.08" x2="267.13" y2="508.39"/><line class="cls-1" x1="210.38" y1="335.16" x2="324.44" y2="429.51"/><line class="cls-1" x1="289.85" y1="250.54" x2="391.18" y2="358.44"/><line class="cls-1" x1="379.29" y1="176.54" x2="466.3" y2="296.3"/><line class="cls-1" x1="477.31" y1="114.34" x2="548.62" y2="244.06"/><line class="cls-1" x1="582.34" y1="64.91" x2="636.84" y2="202.54"/><line class="cls-1" x1="692.75" y1="29.04" x2="729.56" y2="172.42"/><line class="cls-1" x1="806.78" y1="7.29" x2="825.33" y2="154.15"/><line class="cls-1" x1="922.63" x2="922.63" y2="148.02"/></svg>