<?xml version="1.0" encoding="utf-8"?>
<!-- Generator: Adobe Illustrator 25.1.0, SVG Export Plug-In . SVG Version: 6.00 Build 0)  -->
<svg version="1.1" xmlns="http://www.w3.org/2000/svg" xmlns:xlink="http://www.w3.org/1999/xlink" x="0px" y="0px"
	 viewBox="0 0 153.1 153.1" style="enable-background:new 0 0 153.1 153.1;" xml:space="preserve">
<style type="text/css">
	.st0{display:none;}
	.st1{display:inline;fill:none;stroke:#C7AB9B;stroke-width:1.4631;stroke-miterlimit:10;}
	.st2{fill:#C7AB9B;}
	.st3{display:none;fill:none;stroke:#C7AB9B;stroke-width:5;stroke-miterlimit:10;}
	.st4{fill:none;stroke:#C7AB9B;stroke-width:3;stroke-miterlimit:10;}
</style>
<g id="Слой_1">
	
		<image style="display:none;overflow:visible;enable-background:new    ;" width="444" height="444" id="Слой_1_2_" xlink:href="6A048124.png"  transform="matrix(1 0 0 1 -145.4646 -145.4646)">
	</image>
</g>
<g id="Слой_2">
	<g class="st0">
		<rect x="0" y="0" class="st1" width="31.1" height="31.1"/>
		<rect x="122" y="122" class="st1" width="31.1" height="31.1"/>
		<rect x="0" y="122" class="st1" width="31.1" height="31.1"/>
		<rect x="61" y="122" class="st1" width="31.1" height="31.1"/>
		<rect x="61" y="61" class="st1" width="31.1" height="31.1"/>
		<rect x="122" y="61" class="st1" width="31.1" height="31.1"/>
		<rect x="0" y="61" class="st1" width="31.1" height="31.1"/>
		<rect x="122" y="0" class="st1" width="31.1" height="31.1"/>
		<rect x="61" y="0" class="st1" width="31.1" height="31.1"/>
	</g>
	<path class="st2" d="M-9.8-2.6"/>
	<circle class="st3" cx="49.3" cy="49.3" r="45.4"/>
	<line class="st3" x1="153.1" y1="153.1" x2="82.9" y2="82.9"/>
	
		<image style="display:none;overflow:visible;" width="512" height="512" xlink:href="3002856.png"  transform="matrix(0.367 0 0 0.367 -17.422 -17.0046)">
	</image>
</g>
<g id="Слой_3">
	<polyline class="st4" points="3.3,21.5 20.1,21.5 53.5,103.9 135.5,87.9 148,46.3 49,46.3 60.2,76.5 	"/>
	<circle class="st4" cx="67.3" cy="122.7" r="7.1"/>
	<circle class="st4" cx="112" cy="122.7" r="7.1"/>
</g>
</svg>
