<svg width="85" height="84" viewBox="0 0 85 84" fill="none" xmlns="http://www.w3.org/2000/svg">
    <path d="M52.2782 31.6469C52.3084 31.456 52.3239 31.2631 52.3245 31.0698C52.3245 29.4277 51.2983 28.6083 49.246 28.6116C48.2597 28.6116 47.5951 28.7805 47.2513 29.1143C46.9074 29.4481 46.6621 30.1197 46.5224 31.1201C45.7355 30.0121 44.9422 29.2648 44.1426 28.8781C43.4077 28.5252 42.355 28.3502 40.9937 28.3502C37.4856 28.3502 34.4453 30.1338 31.8729 33.7009C29.5048 36.9818 28.3222 40.4863 28.3248 44.2142C28.3248 47.1245 29.0926 49.6809 30.6282 51.8833C32.3313 54.3123 34.5559 55.5262 37.302 55.5248C39.6525 55.5248 41.9086 54.6823 44.0702 52.9973C45.0448 54.6823 46.7077 55.5248 49.059 55.5248C53.5088 55.5248 57.3169 53.6461 60.4832 49.8886C63.4926 46.3135 64.997 42.2041 64.9964 37.5606C64.9964 32.0088 62.6608 27.3794 57.9898 23.6722C53.6626 20.2398 48.7108 18.5219 43.1342 18.5186C35.8733 18.5186 29.7763 20.8142 24.8432 25.4055C19.764 30.1408 17.2244 36.1842 17.2244 43.5356C17.2244 51.0499 19.826 56.8211 25.0292 60.8494C29.7016 64.4802 35.8297 66.2939 43.4137 66.2905C46.625 66.2943 49.816 65.7814 52.8643 64.7714C56.2344 63.6661 59.0083 62.091 61.1859 60.0461C61.9475 59.3055 62.6258 58.4839 63.2088 57.5959C64.0131 56.4206 64.4072 55.4736 64.4072 54.7527C64.4091 54.2102 64.2033 53.6875 63.8321 53.2919C63.6638 53.0915 63.4536 52.9304 63.2163 52.8201C62.979 52.7098 62.7204 52.6529 62.4588 52.6535C61.9848 52.6447 61.5142 52.7342 61.0765 52.9164C60.6389 53.0986 60.2438 53.3696 59.9161 53.7121C58.777 54.9367 57.9285 55.8697 57.3795 56.5111C53.6482 59.7746 49.0087 61.4064 43.461 61.4064C37.5064 61.4064 32.7429 59.9455 29.1704 57.0239C25.2668 53.8274 23.315 49.2519 23.315 43.2973C23.315 37.5184 25.1723 32.6898 28.8869 28.8117C32.6014 24.9336 37.2792 22.9965 42.9201 23.0006C47.3578 23.0006 51.0483 24.2623 53.9914 26.7859C57.1463 29.4622 58.7214 33.0233 58.7167 37.4691C58.7167 39.7956 58.3172 41.9622 57.5183 43.9689C56.6262 46.217 55.3336 47.9496 53.6405 49.1668C52.367 50.0797 51.3717 50.5368 50.6545 50.5381C49.8703 50.5381 49.4785 50.1695 49.4792 49.4322C49.4792 49.1306 49.6803 47.715 50.0915 45.1925L52.2782 31.6469ZM43.2297 44.9371C41.7846 48.9412 40.2481 50.9456 38.62 50.9503C36.1883 50.9503 34.9725 49.398 34.9725 46.2934C34.9725 43.8804 35.6712 41.1629 37.0687 38.1407C38.6981 34.5689 40.5547 32.7837 42.6386 32.785C43.5012 32.785 44.1436 33.2505 44.5659 34.1815C44.9097 34.892 45.0816 35.7375 45.0816 36.7181C45.0816 38.8079 44.4637 41.5479 43.2277 44.9381L43.2297 44.9371Z" stroke="#C7AB9B" stroke-width="2" stroke-miterlimit="10"/>
    <path d="M42.4084 82.442L13.9691 70.6044L1.84021 41.7297L13.1747 13.9379L42.4084 1.52344" stroke="#C7AB9B" stroke-width="2.5" stroke-miterlimit="10"/>
    <path opacity="0.8" d="M42.0635 82.4846L70.5282 70.6385L82.6656 41.7468L71.3226 13.9381L42.0635 1.51514" stroke="#C7AB9B" stroke-width="2.5" stroke-miterlimit="10"/>
</svg>
