<svg width="85" height="85" viewBox="0 0 85 85" fill="none" xmlns="http://www.w3.org/2000/svg">
    <path d="M42.5681 82.9274L14.1289 71.0897L2 42.2151L13.3345 14.4232L42.5681 2.00879" stroke="#C7AB9B" stroke-width="3" stroke-miterlimit="10"/>
    <path opacity="0.8" d="M42.2233 82.9695L70.688 71.1233L82.8254 42.2317L71.4824 14.4229L42.2233 2" stroke="#C7AB9B" stroke-width="3" stroke-miterlimit="10"/>
    <path fill-rule="evenodd" clip-rule="evenodd" d="M31.0801 19.0034H53.1079C56.5242 19.0183 59.7963 20.3821 62.212 22.7978C64.6277 25.2135 65.9914 28.4856 66.0063 31.9019V53.8122C65.9914 57.2285 64.6277 60.5006 62.212 62.9163C59.7963 65.332 56.5242 66.6957 53.1079 66.7106H31.0801C27.666 66.6925 24.397 65.3274 21.9839 62.912C19.5708 60.4967 18.2087 57.2264 18.1938 53.8122V31.9019C18.2087 28.4877 19.5708 25.2174 21.9839 22.802C24.397 20.3867 27.666 19.0215 31.0801 19.0034ZM54.9418 27.3352C55.6658 27.3446 56.3575 27.6364 56.8695 28.1484C57.3814 28.6604 57.6732 29.352 57.6827 30.076V30.076C57.6691 30.7971 57.3754 31.4847 56.8639 31.9932C56.3524 32.5017 55.6631 32.7913 54.9418 32.8006V32.8006C54.5812 32.805 54.2234 32.7371 53.8894 32.6011C53.5554 32.4651 53.252 32.2637 52.997 32.0087C52.742 31.7537 52.5406 31.4503 52.4046 31.1163C52.2686 30.7823 52.2007 30.4245 52.2051 30.0638V30.0638C52.2002 29.7029 52.2676 29.3446 52.4034 29.0102C52.5391 28.6757 52.7405 28.3718 52.9955 28.1163C53.2506 27.8609 53.5542 27.6591 53.8885 27.5229C54.2227 27.3866 54.5809 27.3187 54.9418 27.323V27.3352ZM42.0475 29.8452H42.1608C45.6003 29.8821 48.8886 31.2648 51.3208 33.697C53.753 36.1293 55.1358 39.4175 55.1726 42.857C55.1567 46.3038 53.7809 49.605 51.3444 52.043C48.9079 54.481 45.6076 55.8588 42.1608 55.8769H42.0475C38.6139 55.8544 35.329 54.4727 32.9117 52.0342C30.4944 49.5956 29.1415 46.2988 29.149 42.8651C29.149 35.7884 34.9707 29.8533 42.0475 29.8533V29.8452ZM42.0475 34.2986H42.1608C44.4258 34.3145 46.5934 35.2213 48.195 36.8228C49.7966 38.4244 50.7034 40.5921 50.7193 42.857V42.857C50.7269 45.1401 49.8314 47.3334 48.228 48.9588C46.6247 50.5841 44.4437 51.5094 42.1608 51.5329H42.0475C39.7642 51.5094 37.5828 50.5842 35.9788 48.959C34.3748 47.3338 33.4784 45.1404 33.4849 42.857V42.857C33.5019 40.5917 34.4096 38.4241 36.0118 36.8226C37.6141 35.2211 39.7821 34.3144 42.0475 34.2986ZM31.2016 23.1126H53.0026C55.3648 23.1126 57.6303 24.051 59.3006 25.7213C60.9709 27.3916 61.9093 29.6571 61.9093 32.0193V53.7029C61.9093 56.0651 60.9709 58.3305 59.3006 60.0008C57.6303 61.6712 55.3648 62.6095 53.0026 62.6095H31.2016C28.8394 62.6095 26.574 61.6712 24.9036 60.0008C23.2333 58.3305 22.295 56.0651 22.295 53.7029V32.0152C22.295 29.653 23.2333 27.3876 24.9036 25.7173C26.574 24.0469 28.8394 23.1086 31.2016 23.1086V23.1126Z" fill="#C7AB9B"/>
</svg>
