<svg width="85" height="85" viewBox="0 0 85 85" fill="none" xmlns="http://www.w3.org/2000/svg">
    <path opacity="0.8" d="M42.2233 82.9695L70.688 71.1233L82.8254 42.2317L71.4824 14.4229L42.2233 2" stroke="#C7AB9B" stroke-width="3" stroke-miterlimit="10"/>
    <path d="M42.5681 82.9269L14.1289 71.0892L2 42.2146L13.3345 14.4227L42.5681 2.0083" stroke="#C7AB9B" stroke-width="3" stroke-miterlimit="10"/>
    <path fill-rule="evenodd" clip-rule="evenodd" d="M21.8113 39.5596C32.2136 35.2398 44.7953 29.0942 55.7088 24.9405C65.7758 21.2969 65.6081 22.2807 64.0993 32.248C62.9258 40.2235 61.5805 48.199 60.2393 56.1745C59.7364 59.9963 57.7205 61.9881 53.5253 59.6643L40.4406 50.5269C38.5965 49.0289 39.0994 47.867 40.6082 46.3731L52.687 35.0738C55.8764 31.916 54.3676 30.7541 50.6752 33.248L34.0618 44.3772C31.7107 46.0412 29.1959 46.0412 26.5095 45.2072L20.785 43.2153C17.1049 41.8874 19.9672 40.3814 21.7908 39.5717L21.8113 39.5596Z" fill="#C7AB9B"/>
</svg>
