<svg id="Capa_1" data-name="Capa 1" xmlns="http://www.w3.org/2000/svg" viewBox="0 0 487.17 487.17"><defs><style>.cls-1{fill:none;stroke:#c7ab9b;stroke-miterlimit:10;stroke-width:12px;}</style></defs><path class="cls-1" d="M367.08,149a37.36,37.36,0,0,0,.46-5.74q0-24.5-30.62-24.45c-9.81,0-16.42,1.68-19.84,5s-5.86,10-7.25,19.95q-11.74-16.53-23.67-22.3c-7.31-3.51-17.78-5.25-31.32-5.25q-52.34,0-90.72,53.22Q128.79,218.38,128.83,274q0,43.42,22.91,76.28,25.41,36.24,66.38,36.22,35.07,0,67.32-25.14,14.54,25.14,49.62,25.14,66.39,0,113.63-56.06,44.9-53.34,44.89-122.62,0-82.83-69.69-138.14Q359.33,18.47,276.13,18.42q-108.33,0-181.93,68.5Q18.42,157.57,18.42,267.25q0,112.11,77.63,172.21,69.71,54.17,182.86,54.12a297.75,297.75,0,0,0,94-15.11q50.28-16.49,82.77-47A145,145,0,0,0,475.8,407.1c8-11.69,11.92-21.11,11.92-28.28A21.13,21.13,0,0,0,482,364.29a17.79,17.79,0,0,0-13.66-6.35,34.12,34.12,0,0,0-25.29,10.53c-11.33,12.18-19.77,21.46-25.23,27.84Q362.15,445,279.38,445q-88.84,0-142.14-43.59Q79,353.72,79,264.88q0-86.22,55.42-144.08T274,63q66.21,0,110.12,37.65,47.07,39.93,47,106.26,0,34.71-11.92,64.65-13.31,33.54-38.57,51.7-19,13.62-29.7,13.64-11.7,0-11.69-11c0-3,2-17.08,6.09-42.17Zm-90,132.19Q255.52,340.93,231.23,341q-36.28,0-36.28-46.32,0-36,20.85-81.09,24.31-53.29,55.4-53.27,12.87,0,19.17,13.89,5.13,10.6,5.13,25.23Q295.5,230.62,277.06,281.2Z" transform="translate(-12.42 -12.42)"/></svg>